<svg xmlns="http://www.w3.org/2000/svg" version="1.1" xmlns:xlink="http://www.w3.org/1999/xlink" xmlns:svgjs="http://svgjs.dev/svgjs" width="1000" height="209" viewBox="0 0 1000 209"><g transform="matrix(1,0,0,1,-0.6060606060606233,0.4388734643462868)"><svg viewBox="0 0 396 83" data-background-color="#ffffff" preserveAspectRatio="xMidYMid meet" height="209" width="1000" xmlns="http://www.w3.org/2000/svg" xmlns:xlink="http://www.w3.org/1999/xlink"><g id="tight-bounds" transform="matrix(1,0,0,1,0.2400000000000091,-0.17428946191742511)"><svg viewBox="0 0 395.52 83.34857892383484" height="83.34857892383484" width="395.52"><g><svg viewBox="0 0 525.0701631270017 110.6488974816488" height="83.34857892383484" width="395.52"><g transform="matrix(1,0,0,1,129.55016312700172,15.29228612083569)"><svg viewBox="0 0 395.52 80.06432523997742" height="80.06432523997742" width="395.52"><g id="textblocktransform"><svg viewBox="0 0 395.52 80.06432523997742" height="80.06432523997742" width="395.52" id="textblock"><g><svg viewBox="0 0 395.52 80.06432523997742" height="80.06432523997742" width="395.52"><g transform="matrix(1,0,0,1,0,0)"><svg width="395.52" viewBox="2 -35.35 177.08 35.85" height="80.06432523997742" data-palette-color="#636365"><path d="M7.9 0L2.25 0Q2 0 2-0.25L2-0.25 2.05-34.6Q2.05-34.8 2.25-34.8L2.25-34.8 7.85-34.8Q8.05-34.8 8.05-34.6L8.05-34.6 8.1-0.25Q8.1 0 7.9 0L7.9 0ZM17.95 0L12.95 0Q12.55 0 12.55-0.35L12.55-0.35 12.5-34.4Q12.5-34.8 12.9-34.8L12.9-34.8 17.4-34.8 25.85-15.1 25.6-34.4Q25.6-34.8 26.05-34.8L26.05-34.8 31-34.8Q31.3-34.8 31.3-34.4L31.3-34.4 31.35-0.3Q31.35 0 31.1 0L31.1 0 26.7 0 18.05-18.4 18.4-0.4Q18.4 0 17.95 0L17.95 0ZM41.15 0L36.15 0Q35.75 0 35.75-0.35L35.75-0.35 35.7-34.4Q35.7-34.8 36.1-34.8L36.1-34.8 40.6-34.8 49.05-15.1 48.8-34.4Q48.8-34.8 49.25-34.8L49.25-34.8 54.2-34.8Q54.5-34.8 54.5-34.4L54.5-34.4 54.55-0.3Q54.55 0 54.3 0L54.3 0 49.9 0 41.25-18.4 41.6-0.4Q41.6 0 41.15 0L41.15 0ZM68.14 0.5L68.14 0.5Q65.44 0.5 63.22-0.88 60.99-2.25 59.64-4.53 58.29-6.8 58.29-9.55L58.29-9.55 58.34-25.4Q58.34-28.15 59.67-30.4 60.99-32.65 63.24-34 65.49-35.35 68.14-35.35L68.14-35.35Q70.84-35.35 73.04-34 75.24-32.65 76.57-30.4 77.89-28.15 77.89-25.4L77.89-25.4 77.94-9.55Q77.94-6.8 76.62-4.53 75.29-2.25 73.07-0.88 70.84 0.5 68.14 0.5ZM68.14-5.55L68.14-5.55Q69.64-5.55 70.77-6.78 71.89-8 71.89-9.55L71.89-9.55 71.84-25.4Q71.84-27.05 70.79-28.2 69.74-29.35 68.14-29.35L68.14-29.35Q66.59-29.35 65.49-28.23 64.39-27.1 64.39-25.4L64.39-25.4 64.39-9.55Q64.39-7.9 65.49-6.73 66.59-5.55 68.14-5.55ZM92.34 0L86.29 0Q86.09 0 86.04-0.25L86.04-0.25 79.14-34.6Q79.09-34.8 79.34-34.8L79.34-34.8 84.99-34.8Q85.19-34.8 85.24-34.6L85.24-34.6 89.34-11.7 93.34-34.6Q93.39-34.8 93.59-34.8L93.59-34.8 99.19-34.8Q99.44-34.8 99.39-34.6L99.39-34.6 92.59-0.25Q92.54 0 92.34 0L92.34 0ZM98.54-0.25L98.54-0.25 104.74-34.6Q104.79-34.8 104.99-34.8L104.99-34.8 112.24-34.8Q112.44-34.8 112.49-34.6L112.49-34.6 118.44-0.25Q118.49 0 118.24 0L118.24 0 112.69 0Q112.49 0 112.44-0.25L112.44-0.25 111.89-3.9 105.09-3.9 104.54-0.25Q104.49 0 104.29 0L104.29 0 98.74 0Q98.54 0 98.54-0.25ZM108.34-23.3L106.09-9.25 110.89-9.25 108.84-23.3 108.54-25.15 108.34-23.3ZM129.84 0L124.19 0Q123.99 0 123.99-0.25L123.99-0.25 123.99-28.75 117.49-28.75Q117.24-28.75 117.24-29L117.24-29 117.29-34.6Q117.29-34.8 117.49-34.8L117.49-34.8 136.49-34.8Q136.74-34.8 136.74-34.6L136.74-34.6 136.74-29Q136.74-28.75 136.54-28.75L136.54-28.75 129.99-28.75 130.04-0.25Q130.04 0 129.84 0L129.84 0ZM155.53 0L139.38 0Q139.18 0 139.18-0.25L139.18-0.25 139.23-34.6Q139.23-34.8 139.43-34.8L139.43-34.8 155.48-34.8Q155.68-34.8 155.68-34.55L155.68-34.55 155.68-28.95Q155.68-28.75 155.48-28.75L155.48-28.75 145.23-28.75 145.23-20.95 155.48-20.95Q155.68-20.95 155.68-20.75L155.68-20.75 155.73-15.1Q155.73-14.9 155.53-14.9L155.53-14.9 145.23-14.9 145.23-6.15 155.53-6.15Q155.73-6.15 155.73-5.9L155.73-5.9 155.73-0.2Q155.73 0 155.53 0L155.53 0ZM171.18-6.4L166.98-6.4Q166.73-6.4 166.73-6.65L166.73-6.65 166.73-15.6 159.63-15.6Q159.33-15.6 159.33-15.85L159.33-15.85 159.33-19.8Q159.33-19.85 159.41-19.98 159.48-20.1 159.63-20.1L159.63-20.1 166.73-20.1 166.73-29.2Q166.73-29.3 166.98-29.3L166.98-29.3 171.18-29.3Q171.38-29.3 171.38-29.2L171.38-29.2 171.38-20.1 178.83-20.1Q179.08-20.1 179.08-19.8L179.08-19.8 179.08-15.85Q179.08-15.75 178.98-15.68 178.88-15.6 178.83-15.6L178.83-15.6 171.38-15.6 171.38-6.65Q171.38-6.4 171.18-6.4L171.18-6.4Z" opacity="1" transform="matrix(1,0,0,1,0,0)" fill="#636365" class="wordmark-text-0" data-fill-palette-color="primary" id="text-0"></path></svg></g></svg></g></svg></g></svg></g><g><svg viewBox="0 0 110.6488974816488 110.6488974816488" height="110.6488974816488" width="110.6488974816488"><g data-palette-color="#89939e"><rect width="30.244031978317338" height="110.6488974816488" fill="#89939e" stroke="transparent" data-fill-palette-color="accent" x="0" fill-opacity="0.5"></rect><rect width="30.244031978317338" height="110.6488974816488" fill="#89939e" stroke="transparent" data-fill-palette-color="accent" x="36.88296582721627" fill-opacity="0.75"></rect><rect width="30.244031978317338" height="110.6488974816488" fill="#89939e" stroke="transparent" data-fill-palette-color="accent" x="73.76593165443253" fill-opacity="1"></rect></g></svg></g></svg></g><defs></defs></svg><rect width="395.52" height="83.34857892383484" fill="none" stroke="none" visibility="hidden"></rect></g></svg></g></svg>